<svg width="76" height="73" viewBox="0 0 76 73" fill="none" xmlns="http://www.w3.org/2000/svg">
<path d="M29.3164 46.6834L54.552 28.0695C55.7892 27.157 57.5575 27.513 58.1471 28.9305C61.2497 36.4057 59.8635 45.3891 53.6905 51.557C47.5177 57.7248 38.9288 59.0775 31.0783 55.9968L22.5023 59.9643C34.8028 68.365 49.7394 66.2875 59.0733 56.9548C66.4769 49.557 68.7699 39.4734 66.6259 30.3802L66.6452 30.3995C63.5361 17.0411 67.4097 11.7016 75.3444 0.783127C75.5321 0.524243 75.7199 0.265357 75.9078 0L65.4663 10.4331V10.4007L29.31 46.69" fill="black"/>
<path d="M24.1087 51.2075C15.28 42.7807 16.8022 29.7393 24.3353 22.2189C29.9057 16.6528 39.0324 14.3811 46.9994 17.7207L55.556 13.7727C54.0145 12.6595 52.0388 11.4621 49.7718 10.6207C39.5247 6.40741 27.2566 8.50436 18.9268 16.821C10.9143 24.827 8.39462 37.137 12.7215 47.6414C15.9537 55.492 10.6552 61.045 5.31789 66.65C3.4265 68.6368 1.52864 70.6239 0 72.7273L24.1021 51.2139" fill="black"/>
</svg>
