<svg width="48" height="49" viewBox="0 0 48 49" fill="none" xmlns="http://www.w3.org/2000/svg">
<mask id="mask0_48_276" style="mask-type:luminance" maskUnits="userSpaceOnUse" x="0" y="0" width="48" height="49">
<path d="M47.6509 0H0V48.8571H47.6509V0Z" fill="white"/>
</mask>
<g mask="url(#mask0_48_276)">
<path fill-rule="evenodd" clip-rule="evenodd" d="M15.4381 29.0898C16.7207 29.0898 19.2719 29.0175 22.7985 27.529C26.9078 25.7941 35.0841 22.645 40.9819 19.4104C45.1069 17.148 46.9148 14.1557 46.9148 10.1262C46.9151 4.53367 42.4933 0 37.0388 0H14.1858C6.35116 0 0 6.51195 0 14.5449C0 22.5779 5.94657 29.0898 15.4381 29.0898Z" fill="#355146"/>
<path fill-rule="evenodd" clip-rule="evenodd" d="M19.3044 39.112C19.3044 35.1744 21.6164 31.6242 25.1635 30.1148L32.3604 27.0524C39.6402 23.9546 47.6527 29.4398 47.6527 37.521C47.6527 43.7823 42.7015 48.8573 36.5949 48.8556L28.8029 48.8534C23.5566 48.8522 19.3044 44.4912 19.3044 39.112Z" fill="#D18EE2"/>
<path d="M8.17771 31.0033C3.66138 31.0033 0 34.7572 0 39.3879V40.474C0 45.1047 3.66121 48.8584 8.17754 48.8584C12.6939 48.8584 16.3552 45.1047 16.3552 40.474V39.3879C16.3552 34.7572 12.694 31.0033 8.17771 31.0033Z" fill="#FF7759"/>
</g>
</svg>
